<svg width="9" height="6" viewBox="0 0 9 6" fill="none" xmlns="http://www.w3.org/2000/svg">
<path d="M8.93375 1.51079C8.93375 1.43936 8.89804 1.359 8.84447 1.30543L8.39804 0.859C8.34447 0.805429 8.26411 0.769714 8.19268 0.769714C8.12125 0.769714 8.04089 0.805429 7.98732 0.859L4.47839 4.36793L0.969465 0.859C0.915893 0.805429 0.835536 0.769714 0.764107 0.769714C0.68375 0.769714 0.612322 0.805429 0.55875 0.859L0.112322 1.30543C0.0587503 1.359 0.023036 1.43936 0.023036 1.51079C0.023036 1.58221 0.0587503 1.66257 0.112322 1.71614L4.27304 5.87686C4.32661 5.93043 4.40696 5.96614 4.47839 5.96614C4.54982 5.96614 4.63018 5.93043 4.68375 5.87686L8.84447 1.71614C8.89804 1.66257 8.93375 1.58221 8.93375 1.51079Z" fill="#fff"/>
</svg>
